<svg width="33" height="26" viewBox="0 0 33 26" xmlns="http://www.w3.org/2000/svg">
    <path fill-rule="evenodd" clip-rule="evenodd"
          d="M16.9412 2.22857C12.848 2.22857 9.55247 5.49838 9.55247 9.5042C9.55247 10.1908 9.64876 10.8539 9.82839 11.4818C10.5684 11.695 11.2611 12.0178 11.8871 12.4311C12.4012 12.7706 12.5423 13.462 12.2022 13.9752C11.8621 14.4885 11.1695 14.6293 10.6553 14.2898C10.0885 13.9155 9.44421 13.6471 8.75081 13.5128C8.42066 13.4488 8.0786 13.4151 7.72744 13.4151C4.80857 13.4151 2.46498 15.7459 2.46498 18.5933C2.46498 21.4407 4.80857 23.7714 7.72744 23.7714H22.6112C26.7043 23.7714 29.9999 20.5016 29.9999 16.4958C29.9999 13.3212 27.9321 10.6093 25.0323 9.61945C24.2753 9.36107 23.4612 9.22017 22.6112 9.22017C21.744 9.22017 20.9142 9.36681 20.1443 9.63525C19.5622 9.83818 18.9256 9.53171 18.7223 8.95073C18.519 8.36974 18.826 7.73426 19.4081 7.53132C20.4116 7.18142 21.4902 6.9916 22.6112 6.9916C23.0509 6.9916 23.4842 7.02081 23.9089 7.07745C22.8959 4.25852 20.1649 2.22857 16.9412 2.22857ZM26.4001 7.75731C25.5681 3.33349 21.6416 0 16.9412 0C11.64 0 7.31991 4.24278 7.31991 9.5042C7.31991 10.0793 7.37174 10.643 7.47114 11.1908C3.462 11.3242 0.232422 14.5755 0.232422 18.5933C0.232422 22.6963 3.60055 26 7.72744 26H22.6112C27.9123 26 32.2324 21.7572 32.2324 16.4958C32.2324 12.5681 29.8232 9.20772 26.4001 7.75731Z"
          />
</svg>
