<svg width="26" height="33" viewBox="0 0 26 33" xmlns="http://www.w3.org/2000/svg">
    <path d="M8.48715 18.9866C8.48715 18.1869 7.82987 17.5388 7.01909 17.5388C6.20829 17.5388 5.55103 18.1869 5.55103 18.9866C5.55103 20.9518 5.94332 22.95 7.14001 24.4842C8.39082 26.0878 10.3327 26.9496 12.8914 26.9496C13.7022 26.9496 14.3594 26.3014 14.3594 25.5018C14.3594 24.7021 13.7022 24.0539 12.8914 24.0539C11.0459 24.0539 10.0515 23.4679 9.46726 22.7188C8.82887 21.9003 8.48715 20.6409 8.48715 18.9866Z"
          />
    <path fill-rule="evenodd" clip-rule="evenodd"
          d="M14.9799 0.950562C13.8473 -0.252114 11.934 -0.252066 10.8015 0.950649C9.41605 2.42196 6.85911 5.27639 4.6394 8.53154C2.42452 11.7796 0.367876 15.4789 0.404034 19.497C0.40722 19.8524 0.426393 20.3512 0.489211 20.9463C0.613982 22.1283 0.915346 23.7324 1.6364 25.3581C2.36063 26.9908 3.52297 28.6757 5.3772 29.9478C7.23987 31.2258 9.69887 32.0169 12.8907 32.0169C16.0826 32.0169 18.5416 31.2258 20.4044 29.9478C22.2586 28.6757 23.4211 26.9909 24.1455 25.3582C24.8666 23.7326 25.1681 22.1283 25.2929 20.9463C25.3557 20.3514 25.375 19.8526 25.3782 19.4971C25.4146 15.479 23.3574 11.7794 21.1425 8.53145C18.9225 5.27629 16.3655 2.42186 14.9799 0.950562ZM7.07581 10.1474C9.14138 7.11837 11.5401 4.42583 12.8907 2.98728C14.2415 4.42582 16.6404 7.11835 18.7062 10.1474C20.5766 12.8902 22.4731 16.0626 22.4422 19.4712C22.4397 19.7492 22.4245 20.1555 22.3726 20.6463C22.2681 21.636 22.019 22.9275 21.4555 24.1975C20.8952 25.4604 20.039 26.6712 18.7276 27.5708C17.4248 28.4646 15.5712 29.1212 12.8907 29.1212C10.2102 29.1212 8.35673 28.4646 7.05394 27.5708C5.74272 26.6712 4.88659 25.4604 4.32641 24.1975C3.76304 22.9275 3.51402 21.6362 3.40954 20.6464C3.35773 20.1555 3.34254 19.7494 3.34004 19.4714C3.30939 16.0628 5.20538 12.8904 7.07581 10.1474Z"
          />
</svg>
