<svg width="32" height="32" viewBox="0 0 32 32" fill="none" xmlns="http://www.w3.org/2000/svg">
    <path fill-rule="evenodd" clip-rule="evenodd"
          d="M28.4509 1.30133C27.9641 0.0623498 26.2139 0.0623471 25.727 1.30133L25.09 2.92248L23.4756 3.56153C22.2412 4.05017 22.2412 5.80039 23.4756 6.28903L25.09 6.92808L25.727 8.54923C26.2138 9.78821 27.9641 9.78821 28.4509 8.54923L29.0879 6.92808L30.7023 6.28903C31.9367 5.80039 31.9367 4.05017 30.7023 3.56153L29.0879 2.92248L28.4509 1.30133ZM27.089 1.90495L27.7062 3.47585C27.8545 3.85326 28.1526 4.15296 28.5303 4.30248L30.1036 4.92528L28.5303 5.54808C28.1526 5.6976 27.8545 5.9973 27.7062 6.37471L27.089 7.94561L26.4717 6.37471C26.3234 5.99729 26.0253 5.6976 25.6476 5.54808L24.0743 4.92528L25.6476 4.30248C26.0253 4.15296 26.3234 3.85326 26.4717 3.47585L27.089 1.90495ZM22.6949 9.96735C22.208 8.72837 20.4578 8.72837 19.9709 9.96735L19.7409 10.5527L19.1586 10.7832C17.9242 11.2719 17.9242 13.0221 19.1586 13.5107L19.7409 13.7412L19.9709 14.3266C20.4578 15.5656 22.208 15.5656 22.6949 14.3266L22.9249 13.7412L23.5072 13.5107C24.7416 13.0221 24.7416 11.2719 23.5072 10.7832L22.9249 10.5527L22.6949 9.96735ZM21.3329 10.571L21.5432 11.1061C21.6915 11.4835 21.9895 11.7832 22.3672 11.9327L22.9086 12.147L22.3672 12.3612C21.9895 12.5108 21.6915 12.8105 21.5432 13.1879L21.3329 13.723L21.1227 13.1879C20.9744 12.8105 20.6763 12.5108 20.2986 12.3612L19.7573 12.147L20.2986 11.9327C20.6763 11.7832 20.9744 11.4835 21.1227 11.1061L21.3329 10.571Z"
          fill="#10DEFF"/>
    <path fill-rule="evenodd" clip-rule="evenodd"
          d="M14.5375 2.30932C7.62153 3.03957 2.23256 8.89046 2.23256 16C2.23256 23.6035 8.39645 29.7674 16 29.7674C23.1095 29.7674 28.9604 24.3785 29.6907 17.4625C27.716 19.9693 24.6513 21.5814 21.2093 21.5814C15.2498 21.5814 10.4186 16.7502 10.4186 10.7907C10.4186 7.34866 12.0307 4.28398 14.5375 2.30932ZM0 16C0 7.16344 7.16344 0 16 0C17.0666 0 17.6006 0.850244 17.692 1.52747C17.78 2.17894 17.5392 3.00749 16.7904 3.45998C14.3072 4.96045 12.6512 7.68272 12.6512 10.7907C12.6512 15.5172 16.4828 19.3488 21.2093 19.3488C24.3173 19.3488 27.0395 17.6928 28.54 15.2096C28.9925 14.4608 29.8211 14.22 30.4725 14.308C31.1498 14.3994 32 14.9334 32 16C32 24.8366 24.8366 32 16 32C7.16344 32 0 24.8366 0 16Z"
          fill="#296399"/>
</svg>
