<svg width="29" height="33" viewBox="0 0 29 33" xmlns="http://www.w3.org/2000/svg">
    <path d="M14.335 10.1552C12.7146 10.1552 11.3962 11.4735 11.3962 13.0939C11.3962 14.3711 12.2151 15.4606 13.3554 15.8649V21.2572C13.3554 21.7982 13.794 22.2368 14.335 22.2368C14.876 22.2368 15.3146 21.7982 15.3146 21.2572V15.8649C16.4549 15.4606 17.2738 14.3711 17.2738 13.0939C17.2738 11.4735 15.9554 10.1552 14.335 10.1552ZM14.335 14.0735C13.7949 14.0735 13.3554 13.6341 13.3554 13.0939C13.3554 12.5538 13.7949 12.1143 14.335 12.1143C14.8752 12.1143 15.3146 12.5538 15.3146 13.0939C15.3146 13.6341 14.8752 14.0735 14.335 14.0735ZM21.6505 17.6656C21.5053 17.6656 21.358 17.6332 21.2189 17.5648C20.7334 17.326 20.5335 16.7389 20.7722 16.2534C21.2581 15.2656 21.5045 14.2026 21.5045 13.0939C21.5045 9.1407 18.2883 5.92444 14.3351 5.92444C10.3818 5.92444 7.16557 9.1407 7.16557 13.0939C7.16557 14.2026 7.4119 15.2656 7.89785 16.2534C8.13661 16.7389 7.9367 17.326 7.45122 17.5648C6.96547 17.8036 6.37856 17.6037 6.13981 17.1182C5.52044 15.859 5.20639 14.5051 5.20639 13.0939C5.20639 8.06034 9.30147 3.96525 14.335 3.96525C19.3685 3.96525 23.4636 8.06034 23.4636 13.0939C23.4636 14.505 23.1496 15.859 22.5302 17.1182C22.3598 17.4646 22.0121 17.6656 21.6505 17.6656ZM27.3962 30.0735H15.3146V26.1188C22.0606 25.6159 27.3962 19.9662 27.3962 13.0939C27.3962 5.89198 21.537 0.0327148 14.335 0.0327148C7.13305 0.0327148 1.27378 5.89198 1.27378 13.0939C1.27378 19.9662 6.60942 25.616 13.3554 26.1188V30.0735H1.27378C0.732785 30.0735 0.294189 30.5121 0.294189 31.0531C0.294189 31.5941 0.732785 32.0327 1.27378 32.0327H27.3962C27.9372 32.0327 28.3758 31.5941 28.3758 31.0531C28.3758 30.5121 27.9372 30.0735 27.3962 30.0735ZM3.23296 13.0939C3.23296 6.97227 8.21334 1.9919 14.335 1.9919C20.4567 1.9919 25.437 6.97227 25.437 13.0939C25.437 19.2156 20.4567 24.196 14.335 24.196C8.21334 24.196 3.23296 19.2156 3.23296 13.0939Z"
          />
</svg>
