<svg width="32" height="32" viewBox="0 0 32 32" fill="none" xmlns="http://www.w3.org/2000/svg">
    <path fill-rule="evenodd" clip-rule="evenodd"
          d="M16 0C16.6165 0 17.1163 0.499775 17.1163 1.11628V4.09302C17.1163 4.70953 16.6165 5.2093 16 5.2093C15.3835 5.2093 14.8837 4.70953 14.8837 4.09302V1.11628C14.8837 0.499775 15.3835 0 16 0ZM3.59985 3.67046C4.01585 3.21546 4.72193 3.18385 5.17693 3.59985L8.48411 6.62361C8.93911 7.03961 8.97072 7.74569 8.55472 8.20068C8.13872 8.65568 7.43264 8.68729 6.97764 8.27129L3.67046 5.24753C3.21546 4.83153 3.18385 4.12545 3.59985 3.67046ZM28.4001 3.67046C28.8162 4.12545 28.7845 4.83153 28.3295 5.24753L25.0224 8.27129C24.5674 8.68729 23.8613 8.65568 23.4453 8.20068C23.0293 7.74569 23.0609 7.03961 23.5159 6.62361L26.8231 3.59985C27.2781 3.18385 27.9841 3.21546 28.4001 3.67046ZM16 9.67442C12.5065 9.67442 9.67442 12.5065 9.67442 16C9.67442 19.4935 12.5065 22.3256 16 22.3256C19.4935 22.3256 22.3256 19.4935 22.3256 16C22.3256 12.5065 19.4935 9.67442 16 9.67442ZM7.44186 16C7.44186 11.2735 11.2735 7.44186 16 7.44186C20.7265 7.44186 24.5581 11.2735 24.5581 16C24.5581 20.7265 20.7265 24.5581 16 24.5581C11.2735 24.5581 7.44186 20.7265 7.44186 16ZM0 16C0 15.3835 0.499775 14.8837 1.11628 14.8837H4.09302C4.70953 14.8837 5.2093 15.3835 5.2093 16C5.2093 16.6165 4.70953 17.1163 4.09302 17.1163H1.11628C0.499775 17.1163 0 16.6165 0 16ZM26.7907 16C26.7907 15.3835 27.2905 14.8837 27.907 14.8837H30.8837C31.5002 14.8837 32 15.3835 32 16C32 16.6165 31.5002 17.1163 30.8837 17.1163H27.907C27.2905 17.1163 26.7907 16.6165 26.7907 16ZM23.4798 23.4793C23.9158 23.0434 24.6226 23.0435 25.0585 23.4794L28.3657 26.787C28.8016 27.223 28.8016 27.9298 28.3656 28.3657C27.9296 28.8016 27.2228 28.8016 26.7869 28.3656L23.4797 25.058C23.0438 24.622 23.0439 23.9153 23.4798 23.4793ZM8.52043 23.4796C8.95637 23.9155 8.95637 24.6223 8.52043 25.0582L5.21294 28.3657C4.77701 28.8016 4.07022 28.8016 3.63428 28.3657C3.19835 27.9298 3.19835 27.223 3.63428 26.7871L6.94178 23.4796C7.37771 23.0436 8.0845 23.0436 8.52043 23.4796ZM16 26.7907C16.6165 26.7907 17.1163 27.2905 17.1163 27.907V30.8837C17.1163 31.5002 16.6165 32 16 32C15.3835 32 14.8837 31.5002 14.8837 30.8837V27.907C14.8837 27.2905 15.3835 26.7907 16 26.7907Z"
          fill="#FF7A00"/>
</svg>
