<svg width="19" height="32" viewBox="0 0 19 32" xmlns="http://www.w3.org/2000/svg">
    <path fill-rule="evenodd" clip-rule="evenodd"
          d="M3.90273 5.5814C3.90273 2.49888 6.3204 0 9.30273 0C12.2851 0 14.7027 2.49888 14.7027 5.5814V15.0291C14.7027 15.1368 14.7598 15.2964 14.93 15.4376C16.9843 17.1406 18.3027 19.7604 18.3027 22.6977C18.3027 27.8352 14.2733 32 9.30273 32C4.33217 32 0.302734 27.8352 0.302734 22.6977C0.302734 19.7604 1.62113 17.1406 3.67544 15.4376C3.84568 15.2964 3.90273 15.1368 3.90273 15.0291V5.5814ZM9.30273 2.23256C7.51333 2.23256 6.06273 3.73188 6.06273 5.5814V15.0291C6.06273 15.9275 5.61594 16.6908 5.02688 17.1792C3.46173 18.4767 2.46273 20.4662 2.46273 22.6977C2.46273 26.6022 5.52511 29.7674 9.30273 29.7674C13.0804 29.7674 16.1427 26.6022 16.1427 22.6977C16.1427 20.4662 15.1437 18.4767 13.5786 17.1792C12.9895 16.6908 12.5427 15.9275 12.5427 15.0291V5.5814C12.5427 3.73188 11.0921 2.23256 9.30273 2.23256ZM9.30276 4.46512C9.89923 4.46513 10.3827 4.96492 10.3827 5.58142L10.3824 17.9897C12.4464 18.4937 13.9824 20.4102 13.9824 22.6975C13.9824 25.369 11.8871 27.5347 9.30241 27.5347C6.71772 27.5347 4.62241 25.369 4.62241 22.6975C4.62241 20.4102 6.1584 18.4937 8.22243 17.9897L8.22273 5.58137C8.22275 4.96486 8.70629 4.4651 9.30276 4.46512ZM9.30241 20.0929C7.91065 20.0929 6.78241 21.259 6.78241 22.6975C6.78241 24.136 7.91065 25.3022 9.30241 25.3022C10.6942 25.3022 11.8224 24.136 11.8224 22.6975C11.8224 21.259 10.6942 20.0929 9.30241 20.0929Z"
          />
</svg>
