<svg width="34" height="31" viewBox="0 0 34 31" xmlns="http://www.w3.org/2000/svg">
    <path fill-rule="evenodd" clip-rule="evenodd"
          d="M8.43338 5.81601C8.43338 3.14185 10.6012 0.973999 13.2754 0.973999C15.9495 0.973999 18.1174 3.14183 18.1174 5.81601C18.1174 8.49018 15.9495 10.658 13.2754 10.658H3.59137C2.97426 10.658 2.47398 10.1577 2.47398 9.54063C2.47398 8.92352 2.97426 8.42324 3.59137 8.42324H13.2754C14.7153 8.42324 15.8826 7.25595 15.8826 5.81601C15.8826 4.37607 14.7153 3.20877 13.2754 3.20877C11.8354 3.20877 10.6681 4.37607 10.6681 5.81601V6.34809C10.6681 6.96522 10.1679 7.46548 9.55076 7.46548C8.93365 7.46548 8.43338 6.96522 8.43338 6.34809V5.81601ZM20.3522 8.79571C20.3522 5.29872 23.1871 2.46385 26.684 2.46385C30.181 2.46385 33.0159 5.29872 33.0159 8.79571C33.0159 12.2927 30.181 15.1276 26.684 15.1276H2.10152C1.48441 15.1276 0.984131 14.6273 0.984131 14.0102C0.984131 13.3931 1.48441 12.8928 2.10152 12.8928H26.684C28.9468 12.8928 30.7811 11.0585 30.7811 8.79571C30.7811 6.53295 28.9468 4.69862 26.684 4.69862C24.4212 4.69862 22.5869 6.53295 22.5869 8.79571V9.54063C22.5869 10.1577 22.0866 10.658 21.4696 10.658C20.8525 10.658 20.3522 10.1577 20.3522 9.54063V8.79571ZM3.96383 18.4797C3.96383 17.8626 4.46411 17.3623 5.08122 17.3623H26.684C30.181 17.3623 33.0159 20.1972 33.0159 23.6942C33.0159 27.1912 30.181 30.0261 26.684 30.0261C23.1871 30.0261 20.3522 27.1912 20.3522 23.6942V22.9493C20.3522 22.3322 20.8525 21.8319 21.4696 21.8319C22.0866 21.8319 22.5869 22.3322 22.5869 22.9493V23.6942C22.5869 25.957 24.4212 27.7913 26.684 27.7913C28.9468 27.7913 30.7811 25.957 30.7811 23.6942C30.7811 21.4314 28.9468 19.5971 26.684 19.5971H5.08122C4.46411 19.5971 3.96383 19.0968 3.96383 18.4797Z"
          />
</svg>
